<?xml version="1.0" standalone="no"?>
<!DOCTYPE svg PUBLIC "-//W3C//DTD SVG 20010904//EN"
 "http://www.w3.org/TR/2001/REC-SVG-20010904/DTD/svg10.dtd">
<svg version="1.0" xmlns="http://www.w3.org/2000/svg"
 width="2048.000000pt" height="2048.000000pt" viewBox="0 0 2048.000000 2048.000000"
 preserveAspectRatio="xMidYMid meet">
<metadata>
Created by potrace 1.11, written by Peter Selinger 2001-2013
</metadata>
<g transform="translate(0.000000,2048.000000) scale(0.100000,-0.100000)"
fill="#000000" stroke="none">
<path d="M6841 15653 c0 -10 -3 -37 -6 -59 l-7 -42 132 -51 c72 -28 136 -51
141 -51 5 0 9 -6 10 -12 5 -67 3 -2147 -2 -2159 -7 -14 -73 -15 -626 -12 -735
4 -814 6 -830 16 -7 5 -13 5 -13 0 0 -4 -22 -8 -50 -8 -27 0 -50 2 -50 5 0 3
-57 6 -128 6 -122 2 -339 9 -542 19 -157 8 -313 16 -348 19 -60 4 -18 -11 83
-29 55 -10 111 -20 125 -22 72 -10 87 -12 105 -16 11 -3 38 -7 60 -11 22 -3
58 -9 80 -13 22 -3 48 -6 58 -5 9 0 17 -2 17 -6 0 -4 15 -7 33 -7 30 -1 100
-9 157 -20 14 -2 48 -7 75 -10 28 -3 64 -7 80 -10 37 -6 119 -16 165 -21 19
-2 54 -6 78 -9 82 -10 128 -15 182 -21 30 -2 69 -7 85 -9 17 -2 67 -6 112 -10
46 -3 93 -8 105 -10 13 -3 59 -7 103 -10 44 -3 100 -7 125 -9 142 -13 183 -16
255 -21 44 -3 114 -8 155 -11 82 -6 130 -9 355 -20 83 -4 173 -8 200 -9 161
-8 679 -17 910 -16 149 1 279 1 290 1 11 -1 25 -1 30 -1 29 -1 453 12 530 16
50 2 153 7 230 10 77 3 160 8 185 10 25 2 90 7 145 10 55 3 120 8 145 10 25 2
79 7 120 10 41 3 95 8 120 10 51 6 187 17 240 20 19 2 35 4 35 5 0 1 20 3 45
4 25 1 50 4 55 7 6 3 29 5 52 5 24 -1 43 1 43 4 0 3 12 5 28 5 24 1 120 10
192 20 14 1 48 6 75 9 45 6 79 10 155 21 14 2 45 7 70 10 25 3 57 8 71 11 15
2 47 6 70 9 24 3 71 10 104 15 33 5 78 12 100 15 22 3 52 8 67 11 27 5 73 13
118 19 14 1 41 6 60 9 19 4 98 18 175 32 77 14 156 29 175 34 19 5 53 11 74
15 21 3 48 8 60 11 12 3 35 7 51 9 17 2 30 4 30 5 0 2 19 6 63 14 18 4 112 25
210 47 229 52 224 51 242 54 8 1 22 5 30 8 8 3 49 13 90 22 41 9 125 29 185
46 61 16 137 37 170 45 418 112 704 244 973 452 244 188 380 395 420 637 15
88 3 242 -24 318 -16 45 -79 134 -128 179 -139 129 -430 261 -691 313 -58 11
-191 34 -235 40 -25 3 -56 8 -70 10 -14 2 -59 7 -100 10 -41 4 -95 9 -120 12
-25 2 -174 5 -332 7 -274 3 -373 -4 -254 -18 85 -10 320 -72 426 -113 347
-133 503 -312 468 -539 -10 -68 -91 -240 -138 -294 -54 -62 -86 -94 -116 -119
-50 -43 -275 -191 -289 -191 -7 0 -15 -4 -17 -9 -3 -9 -213 -117 -328 -169
-137 -62 -159 -72 -163 -72 -3 0 -22 -8 -43 -17 -22 -9 -43 -18 -49 -19 -5 -2
-73 -26 -150 -55 -77 -28 -149 -52 -160 -53 -19 -1 -19 6 -17 344 6 710 11
1086 15 1105 9 38 40 110 55 127 18 22 107 48 161 48 23 0 41 3 42 8 4 29 5
89 1 100 -3 9 -218 12 -1027 12 -563 0 -1026 -4 -1029 -8 -3 -5 -8 -24 -11
-42 -3 -18 -8 -36 -10 -40 -9 -14 21 -36 75 -57 30 -12 87 -33 125 -48 39 -15
74 -31 79 -36 11 -10 13 -1870 2 -1887 -3 -6 -14 -11 -24 -11 -9 -1 -30 -3
-47 -5 -16 -3 -46 -7 -65 -10 -19 -3 -46 -8 -60 -12 -14 -3 -41 -7 -60 -8 -19
-2 -44 -6 -55 -9 -11 -3 -45 -8 -75 -12 -30 -3 -66 -7 -80 -10 -76 -12 -217
-32 -295 -41 -33 -3 -67 -7 -75 -9 -28 -5 -145 -18 -190 -21 -25 -1 -45 -3
-45 -4 0 -1 -11 -3 -25 -4 -14 -2 -54 -6 -90 -10 -36 -4 -91 -9 -123 -11 -31
-3 -82 -7 -112 -10 -124 -11 -253 -22 -371 -30 l-82 -6 4 413 c2 227 6 676 9
998 2 322 7 602 10 622 3 21 16 62 29 91 28 64 63 85 158 94 35 3 66 10 69 15
5 8 5 66 0 101 -1 4 -464 7 -1030 7 -974 0 -1030 -1 -1030 -17z"/>
<path d="M7119 12738 c-1 -2 -3 -402 -4 -889 l-1 -886 -22 -35 c-26 -42 -97
-76 -166 -80 -43 -3 -47 -6 -55 -33 -4 -16 -7 -46 -7 -65 l1 -35 185 0 c102 0
191 4 198 9 7 5 12 5 12 0 0 -11 91 -11 108 0 7 4 12 4 12 -1 0 -10 492 -9
508 1 7 4 12 4 12 -1 0 -10 91 -10 108 1 7 4 12 4 12 -1 0 -10 492 -9 508 1 7
4 12 4 12 -1 0 -10 91 -10 108 1 7 4 12 4 12 -1 0 -11 198 -9 209 3 12 12 25
114 14 115 -4 0 -26 3 -48 5 -22 2 -56 6 -75 8 -70 7 -112 38 -136 102 -14 38
-16 122 -12 834 3 435 1 793 -3 795 -4 3 -47 7 -95 10 -49 3 -114 7 -144 9
-30 3 -89 7 -130 10 -109 8 -273 23 -330 31 -19 2 -69 7 -110 10 -41 4 -91 9
-110 11 -19 3 -53 7 -75 9 -22 2 -56 6 -75 9 -32 5 -84 11 -185 21 -22 3 -56
7 -75 10 -19 3 -59 7 -89 11 -30 3 -59 7 -63 10 -4 3 -9 4 -9 2z"/>
<path d="M11845 12659 c-150 -21 -207 -27 -390 -44 -44 -4 -96 -9 -115 -11
-80 -8 -219 -17 -277 -18 -35 -1 -63 -3 -63 -6 0 -5 -38 -7 -252 -12 -65 -2
-118 -5 -118 -8 0 -3 -28 -5 -62 -5 l-63 0 -2 -790 c-1 -434 -2 -795 -2 -802
-2 -25 -63 -82 -105 -98 -24 -9 -64 -18 -89 -18 l-44 -2 -10 -62 c-9 -59 -8
-62 14 -66 13 -2 23 0 23 5 0 5 5 6 12 2 17 -11 108 -11 108 0 0 5 5 5 13 -1
14 -10 328 -10 345 1 7 4 12 4 12 -1 0 -10 91 -10 108 1 7 4 12 4 12 -1 0 -9
332 -9 347 0 6 4 13 3 17 0 10 -10 106 -9 106 1 0 5 5 5 13 0 6 -5 64 -8 127
-7 63 2 124 3 135 3 11 0 85 0 165 0 80 0 150 0 155 0 6 0 76 -1 158 -3 l147
-2 1 48 c1 26 2 55 3 64 1 14 -9 17 -47 19 -145 6 -200 39 -224 137 -5 21 -5
579 1 1328 2 325 1 365 -13 365 -9 0 -74 -7 -146 -17z"/>
<path d="M429 9225 c-1 0 -3 -67 -4 -150 l-2 -150 9817 0 9816 0 0 148 c0 97
-3 147 -10 148 -8 1 -15998 4 -19617 4z"/>
<path d="M9494 8163 c-15 -48 -38 -93 -47 -93 -6 0 -8 -3 -4 -6 3 -3 -20 -56
-50 -117 -159 -322 -131 -287 -243 -301 -28 -3 -71 -11 -93 -16 -23 -5 -64
-12 -92 -16 -27 -3 -59 -8 -70 -10 -11 -2 -60 -11 -110 -20 -49 -8 -91 -17
-92 -18 -3 -2 143 -147 304 -304 87 -83 102 -102 97 -123 -3 -13 -7 -40 -9
-59 -3 -19 -7 -51 -9 -70 -3 -19 -10 -69 -16 -110 -6 -41 -13 -86 -16 -100 -2
-14 -7 -45 -10 -70 -3 -25 -9 -62 -14 -83 -10 -46 -1 -53 42 -29 55 32 360
203 406 229 l42 24 148 -77 c81 -42 198 -103 260 -135 108 -57 139 -69 128
-50 -3 5 -8 30 -10 57 -3 27 -10 76 -15 109 -6 33 -13 76 -15 95 -9 64 -17
115 -21 136 -3 12 -9 52 -15 90 l-9 69 202 203 c145 145 196 202 182 203 -11
0 -27 2 -35 4 -30 7 -86 16 -112 20 -15 2 -35 6 -45 9 -21 6 -84 16 -133 22
-19 2 -48 7 -65 11 -16 4 -32 7 -35 8 -3 1 -31 4 -62 9 -31 4 -62 14 -69 22
-6 8 -8 14 -3 14 5 0 4 4 -2 8 -5 4 -38 59 -73 122 -34 63 -66 122 -72 130 -5
8 -15 26 -21 40 -22 45 -109 190 -114 190 -2 0 -7 -8 -10 -17z"/>
<path d="M18234 8066 c-3 -14 -14 -32 -25 -42 -17 -16 -71 -17 -694 -18 l-676
-1 -21 23 c-12 12 -18 22 -14 22 5 0 3 7 -4 15 -7 8 -16 15 -21 15 -5 0 -9
-106 -9 -235 0 -228 1 -235 20 -235 11 0 19 3 18 8 -1 4 5 19 12 35 l13 27
239 0 238 0 1 -22 c4 -60 5 -965 1 -975 -2 -7 -12 -13 -23 -13 -22 0 -48 -39
-27 -41 18 -1 499 -1 521 0 29 2 19 31 -17 46 l-34 14 0 496 0 495 238 0 c238
0 239 0 251 -22 12 -23 28 -38 42 -38 4 0 7 106 7 235 0 201 -2 235 -15 235
-8 0 -17 -11 -21 -24z"/>
<path d="M19961 8071 c-6 -11 -11 -27 -11 -35 0 -10 -14 -18 -37 -22 -54 -10
-1313 -11 -1345 -1 -16 5 -30 20 -37 38 -11 32 -30 39 -32 12 0 -10 -1 -114
-1 -231 -1 -233 6 -263 41 -193 l21 41 235 0 c176 0 236 -3 242 -12 10 -17 12
-958 1 -979 -4 -9 -18 -19 -32 -23 -15 -4 -23 -12 -22 -23 3 -15 26 -17 269
-17 147 1 269 3 272 6 12 12 -10 39 -36 45 -23 4 -29 11 -30 32 0 34 0 942 0
959 1 9 55 12 239 12 l237 0 18 -31 c9 -17 23 -29 30 -26 17 5 18 458 0 464
-6 2 -16 -5 -22 -16z"/>
<path d="M5007 8043 c-1 0 -32 -4 -68 -7 -36 -3 -88 -10 -115 -16 -27 -7 -57
-13 -67 -15 -71 -15 -183 -75 -236 -127 -47 -45 -111 -146 -111 -174 0 -13 -3
-25 -7 -27 -23 -15 4 -174 42 -248 18 -34 75 -97 75 -82 0 4 4 4 8 -2 15 -21
134 -67 204 -79 15 -3 31 -7 35 -9 5 -3 28 -8 53 -11 25 -3 56 -8 70 -10 45
-8 114 -16 190 -22 41 -3 89 -7 105 -9 17 -2 53 -7 80 -9 93 -11 188 -28 220
-42 43 -17 61 -64 41 -102 -31 -61 -79 -84 -226 -112 -46 -9 -323 -6 -350 4
-8 2 -33 7 -55 10 -22 3 -51 8 -65 11 -14 3 -34 8 -45 9 -34 6 -115 36 -153
58 -56 31 -84 67 -80 105 3 23 -1 33 -12 35 -11 3 -40 -55 -112 -226 -54 -126
-95 -233 -92 -238 8 -13 18 -10 42 13 12 11 26 18 30 15 5 -3 19 -7 33 -10 13
-2 62 -14 109 -26 47 -12 96 -24 110 -26 14 -3 32 -7 40 -9 8 -2 31 -7 50 -10
19 -3 60 -10 92 -16 202 -35 480 -28 653 17 33 8 72 18 88 21 15 3 27 9 27 13
0 4 12 11 28 14 69 17 204 142 247 229 50 104 50 226 -1 335 -72 152 -225 209
-699 257 -384 39 -448 68 -385 171 18 28 50 47 105 60 6 2 21 6 35 9 29 7 250
7 295 1 17 -3 53 -7 80 -10 85 -9 109 -13 155 -26 25 -7 47 -12 50 -12 3 -1
29 -9 59 -19 65 -23 91 -44 91 -76 0 -15 6 -23 18 -23 12 0 30 23 55 73 20 39
61 119 92 176 30 57 55 105 55 106 0 13 -37 12 -51 -1 -17 -16 -77 -16 -134 0
-11 3 -49 13 -85 21 -64 16 -86 21 -145 30 -16 2 -41 7 -55 10 -68 15 -402 38
-413 28z"/>
<path d="M6807 8043 c-1 -1 -31 -4 -67 -8 -176 -17 -321 -76 -407 -163 -99
-102 -135 -208 -111 -327 16 -76 51 -147 89 -179 29 -25 102 -64 134 -73 6 -1
44 -11 85 -22 41 -11 91 -22 110 -25 19 -3 47 -8 62 -11 33 -6 114 -15 273
-28 65 -6 163 -17 195 -23 14 -2 40 -7 59 -10 104 -17 144 -63 110 -127 -21
-39 -45 -57 -100 -76 -92 -33 -159 -40 -309 -36 -137 4 -175 7 -235 20 -14 3
-37 7 -52 10 -107 21 -212 67 -253 111 -14 14 -23 37 -23 60 -3 57 -20 51 -49
-18 -49 -113 -62 -143 -63 -148 -3 -10 -19 -47 -43 -100 -33 -75 -62 -149 -62
-159 0 -14 27 -7 49 13 11 10 24 16 29 13 4 -4 19 -8 33 -11 13 -3 58 -14 99
-25 77 -20 87 -23 180 -40 72 -14 118 -21 155 -26 139 -19 335 -25 420 -13 28
3 68 9 90 12 211 29 367 112 463 246 53 75 70 133 67 230 -7 211 -124 322
-392 369 -113 20 -140 24 -253 36 -30 3 -71 8 -90 10 -19 3 -60 7 -90 10 -173
18 -266 40 -296 72 -12 13 -21 32 -19 41 2 9 4 20 4 23 3 18 64 71 92 79 111
33 379 27 550 -11 26 -6 53 -12 60 -13 8 -1 47 -13 87 -25 59 -19 75 -29 88
-52 8 -16 11 -29 7 -29 -5 0 0 -5 10 -11 23 -14 25 -12 76 84 107 201 124 233
132 243 9 11 -8 34 -25 34 -5 0 -19 -9 -30 -19 -22 -20 -41 -18 -186 18 -25 7
-56 14 -70 17 -14 2 -38 7 -55 11 -49 11 -58 13 -90 17 -16 3 -46 7 -65 11
-70 11 -366 26 -373 18z"/>
<path d="M3177 8034 c-1 -1 -33 -4 -72 -7 -81 -7 -212 -39 -270 -66 -22 -10
-50 -21 -61 -25 -59 -18 -146 -77 -209 -140 -106 -108 -166 -223 -181 -348
-36 -314 52 -519 292 -678 82 -54 178 -92 290 -115 198 -41 387 -36 594 15 25
6 54 13 65 15 80 19 223 77 259 106 6 5 25 20 43 34 17 14 45 47 63 73 32 49
96 235 86 251 -4 5 -2 12 3 15 18 11 29 165 17 232 -2 10 -7 39 -11 64 -25
153 -139 333 -265 416 -94 63 -242 115 -390 139 -59 9 -248 23 -253 19z m190
-340 c167 -30 301 -145 328 -281 7 -33 7 -125 1 -170 -11 -77 -68 -163 -141
-213 -78 -53 -150 -73 -275 -76 -130 -4 -178 4 -267 46 -173 80 -253 252 -203
438 32 118 108 197 228 236 110 37 207 43 329 20z"/>
<path d="M491 8010 c-49 -7 -50 -27 -2 -46 33 -13 41 -21 42 -43 0 -35 0
-1190 0 -1218 -1 -16 -11 -25 -36 -34 -19 -7 -35 -19 -35 -26 0 -16 -32 -14
290 -16 265 0 275 0 275 19 0 13 -7 19 -23 19 -49 0 -53 20 -51 287 l2 246 27
4 c15 2 36 1 46 -3 11 -3 26 -3 34 1 8 4 24 4 35 0 11 -4 32 -4 47 1 15 4 30
4 33 -1 3 -5 18 -5 33 0 16 4 36 4 45 -1 9 -6 18 -5 21 0 4 6 18 6 36 1 16 -5
32 -5 34 -2 5 8 64 8 72 0 3 -4 19 -2 35 2 17 5 31 5 34 -1 4 -5 14 -6 23 -1
21 9 53 9 69 -1 6 -4 14 -3 17 1 7 11 54 3 62 -10 5 -8 7 -232 4 -454 0 -36
-4 -43 -35 -60 -40 -21 -46 -44 -12 -45 12 0 137 -1 277 -2 231 0 255 1 258
16 3 12 -5 19 -26 23 -25 5 -32 13 -41 48 -7 27 -10 248 -9 643 l0 602 39 15
c58 23 48 36 -28 37 -38 0 -164 1 -280 2 -209 2 -233 -1 -215 -30 4 -6 23 -16
42 -23 l35 -12 0 -144 c0 -79 -4 -144 -8 -144 -5 0 -5 -5 -1 -12 10 -16 11
-68 1 -68 -4 0 -3 -8 2 -18 24 -46 15 -47 -364 -48 l-356 -1 1 205 c1 113 6
215 11 229 5 15 20 26 39 29 35 7 41 34 8 35 -139 3 -481 3 -507 -1z"/>
<path d="M13057 8012 c-29 -3 -37 -7 -35 -20 2 -9 12 -18 23 -20 11 -2 25 -8
30 -12 6 -5 9 -223 9 -622 -1 -337 -2 -623 -3 -636 -1 -14 -10 -26 -26 -32
-31 -12 -33 -40 -2 -41 28 -1 443 -1 479 0 21 1 25 5 21 21 -4 14 -11 19 -23
15 -31 -10 -39 43 -40 270 l0 215 52 1 c171 3 210 0 229 -17 10 -9 19 -23 19
-30 0 -7 4 -14 8 -16 13 -5 282 -367 282 -379 0 -5 -13 -17 -29 -27 -28 -16
-39 -51 -16 -53 14 -1 482 -1 522 0 44 1 50 32 9 46 -32 10 -56 39 -195 235
-46 63 -91 126 -102 140 -74 100 -80 110 -58 110 20 0 213 97 234 118 92 89
135 201 129 336 -7 151 -93 297 -202 344 -53 23 -167 46 -182 37 -6 -3 -10 -3
-10 2 0 4 -46 10 -103 11 -139 5 -973 8 -1020 4z m946 -300 c113 -22 157 -61
157 -139 0 -37 -51 -99 -93 -112 -64 -21 -96 -23 -334 -27 l-241 -4 -1 144
c-1 103 2 145 11 148 25 9 447 0 501 -10z"/>
<path d="M11320 7999 c0 -5 -1 -12 -2 -16 -2 -3 6 -7 16 -9 50 -7 49 13 50
-660 l1 -627 -32 -14 c-32 -13 -45 -42 -20 -44 70 -4 521 -2 529 2 6 4 8 14 5
24 -4 9 -11 14 -16 11 -18 -11 -41 6 -49 37 -5 18 -8 124 -7 237 l0 204 275 2
c284 1 396 13 494 51 46 18 52 23 115 85 134 133 154 352 47 531 -64 109 -159
158 -351 182 -85 11 -1055 14 -1055 4z m993 -299 c21 -6 52 -24 69 -39 26 -23
32 -37 36 -83 3 -41 0 -62 -13 -81 -19 -29 -81 -63 -135 -73 -37 -7 -448 -13
-465 -7 -7 2 -10 58 -9 151 1 81 2 148 3 149 4 9 483 -7 514 -17z"/>
<path d="M15310 7984 c0 -16 5 -21 18 -19 32 5 42 -13 27 -48 -7 -18 -23 -55
-34 -84 -12 -28 -26 -64 -33 -80 -6 -15 -12 -30 -12 -33 -2 -8 -34 -87 -66
-165 -5 -11 -19 -45 -30 -75 -12 -30 -26 -64 -30 -75 -5 -11 -41 -101 -80
-200 -39 -99 -75 -189 -79 -200 -5 -11 -23 -56 -41 -100 -18 -44 -36 -89 -41
-100 -4 -11 -17 -43 -29 -71 -14 -33 -30 -56 -46 -63 -15 -7 -24 -18 -22 -28
3 -15 25 -16 218 -16 269 1 260 1 260 13 0 6 -11 15 -25 20 -14 5 -25 13 -25
18 0 13 20 72 36 109 8 17 14 34 14 38 0 4 6 21 14 38 8 18 16 39 19 47 4 13
46 15 321 15 315 -1 316 -1 332 -23 8 -12 13 -22 10 -22 -5 0 15 -53 55 -145
16 -38 14 -53 -11 -74 -17 -14 -21 -23 -13 -28 14 -10 510 -9 520 1 4 4 -6 18
-23 31 -17 13 -37 39 -44 57 -7 18 -18 47 -25 63 -7 17 -57 138 -110 270 -53
132 -103 254 -110 270 -7 17 -37 89 -65 160 -116 287 -151 372 -171 414 -21
45 -16 60 19 61 6 0 12 10 12 23 l0 24 -355 -1 -355 0 0 -22z m365 -321 c15
-38 36 -86 46 -108 9 -22 47 -112 83 -200 37 -88 71 -168 77 -178 6 -11 8 -22
4 -25 -3 -3 -111 -7 -240 -8 -248 -1 -250 -1 -226 44 5 9 33 78 62 152 28 74
58 149 64 165 7 17 30 74 51 128 20 53 40 97 44 97 4 0 20 -30 35 -67z"/>
<path d="M5763 5776 l-21 -23 -386 0 c-363 0 -386 1 -402 18 -33 37 -39 23
-37 -88 1 -60 2 -112 2 -117 1 -6 13 1 29 15 26 24 32 25 167 24 l140 -1 3
-347 c2 -341 2 -346 -18 -357 -12 -6 -19 -17 -17 -23 5 -17 267 -17 267 0 0 6
-8 16 -17 22 -16 9 -18 37 -19 343 0 183 3 340 7 348 6 13 31 15 143 15 127
-1 137 -3 160 -24 13 -12 26 -19 29 -14 8 13 6 209 -2 222 -5 7 -14 4 -28 -13z"/>
<path d="M10919 5800 c-7 -20 -3 -230 3 -230 4 0 10 0 13 0 3 0 5 3 6 8 1 17
52 25 177 26 72 0 133 -1 133 -4 1 -3 2 -158 3 -344 2 -322 1 -340 -17 -357
-11 -9 -17 -21 -14 -26 4 -7 231 -10 270 -4 14 2 7 21 -8 21 -9 0 -19 10 -24
23 -11 28 -11 669 0 682 5 7 62 10 145 10 131 -1 137 -2 155 -24 11 -13 22
-21 26 -17 8 8 10 214 2 227 -3 6 -13 -1 -22 -14 l-16 -25 -391 0 -392 1 -24
26 c-13 14 -25 24 -25 21z"/>
<path d="M6889 5771 c-15 -17 -46 -18 -415 -18 -396 0 -439 -4 -385 -33 21
-11 21 -17 21 -410 0 -389 -1 -400 -20 -410 -11 -6 -20 -16 -20 -23 0 -9 94
-12 411 -12 l411 0 18 -23 c12 -15 21 -19 26 -11 11 18 10 219 -1 222 -5 2
-20 -6 -31 -19 -21 -22 -24 -22 -308 -22 -157 0 -287 3 -287 6 -1 4 -2 58 -3
120 l-2 112 26 1 c14 1 99 1 189 2 161 0 164 0 182 -24 9 -13 21 -21 24 -17 4
4 7 55 8 115 1 97 -1 108 -17 111 -10 2 -16 0 -12 -6 3 -5 -1 -16 -10 -23 -19
-16 -382 -20 -387 -4 -2 6 -3 53 -3 105 l1 94 115 1 c63 0 121 -3 128 -8 6 -5
12 -6 12 -1 0 11 290 11 308 1 6 -5 12 -5 12 0 0 4 7 -3 16 -15 8 -12 19 -20
24 -17 4 3 9 55 9 115 1 115 -5 129 -40 91z"/>
<path d="M13020 5758 c0 -5 -3 -7 -7 -6 -16 4 -83 -13 -125 -32 -170 -75 -268
-223 -269 -405 0 -80 10 -125 47 -201 59 -124 140 -195 274 -240 85 -29 293
-26 379 4 215 77 326 235 316 451 -10 218 -157 387 -370 426 -55 10 -245 12
-245 3z m222 -165 c119 -41 191 -146 192 -279 0 -71 -23 -154 -51 -182 -7 -7
-16 -19 -20 -26 -18 -28 -105 -79 -155 -90 -155 -35 -296 29 -361 164 -30 63
-30 195 1 260 34 72 98 129 177 158 41 15 168 12 217 -5z"/>
<path d="M3107 5752 c-22 -5 -21 -10 5 -32 l23 -18 0 -389 0 -388 -23 -24
c-13 -13 -20 -26 -17 -29 3 -4 67 -7 141 -7 101 -1 134 2 134 12 0 7 -9 17
-20 23 -19 10 -20 21 -20 400 0 213 3 395 6 404 3 9 12 16 20 16 21 0 17 30
-3 31 -59 3 -232 3 -246 1z"/>
<path d="M3663 5752 c-29 -4 -29 -10 0 -32 l23 -19 -1 -393 c-1 -216 -3 -396
-3 -400 -1 -5 -9 -8 -17 -8 -8 0 -15 -8 -15 -18 0 -16 11 -18 124 -17 69 0
128 4 132 8 4 3 -4 15 -17 26 l-23 19 -1 267 c0 147 3 268 6 270 3 2 84 -78
180 -177 96 -100 206 -214 244 -253 103 -105 100 -101 81 -130 -9 -14 -15 -26
-14 -26 2 -1 63 -2 136 -3 93 -1 136 2 143 10 7 9 4 14 -10 19 -12 3 -22 14
-22 23 -1 9 -2 188 -4 397 l-2 380 26 22 c14 12 23 25 19 28 -9 9 -257 10
-265 1 -4 -4 3 -16 17 -26 l24 -18 1 -259 c1 -142 -1 -262 -3 -267 -3 -4 -39
28 -81 72 -42 44 -150 157 -241 251 -90 95 -168 179 -173 187 -6 10 -3 22 9
35 9 10 15 22 11 25 -6 6 -246 11 -284 6z"/>
<path d="M7227 5752 c-22 -5 -21 -10 5 -32 l23 -18 0 -389 1 -388 -24 -24
c-13 -13 -20 -26 -17 -29 3 -4 67 -7 141 -7 138 -1 159 6 115 37 -17 12 -18
27 -17 168 l1 155 115 1 116 0 107 -160 c102 -150 107 -160 88 -170 -43 -24
-5 -32 146 -31 83 0 154 3 158 7 4 3 -9 14 -29 23 -20 10 -36 20 -36 24 0 3
-10 18 -22 32 -13 14 -27 32 -33 42 -5 9 -45 66 -88 127 -43 62 -77 113 -75
115 2 2 15 5 28 8 70 10 146 63 178 122 21 39 23 48 24 126 4 161 -80 239
-274 255 -72 7 -604 11 -631 6z m598 -155 c74 -12 101 -29 106 -67 11 -84 0
-112 -50 -136 -30 -15 -69 -18 -231 -18 l-195 -1 -1 110 c0 61 0 112 2 115 3
6 326 3 369 -3z"/>
<path d="M8464 5750 c-12 -5 -10 -10 11 -28 l25 -22 0 -390 c0 -378 -1 -391
-20 -407 -11 -10 -20 -22 -20 -28 0 -12 244 -14 257 -2 4 5 -3 16 -16 26 l-23
18 0 267 c0 147 2 269 4 272 3 2 103 -98 224 -223 120 -125 233 -241 250 -257
46 -46 55 -68 37 -82 -9 -6 -13 -15 -10 -20 7 -12 263 -12 274 0 4 4 -3 16
-17 26 l-24 18 -1 389 0 388 24 23 c13 12 21 25 18 29 -9 8 -242 8 -256 -1 -8
-5 -4 -13 11 -26 23 -18 23 -20 23 -284 1 -146 -1 -266 -3 -266 -2 0 -26 24
-53 53 -28 28 -135 139 -237 246 -103 106 -193 202 -201 213 -11 17 -10 22 10
44 26 28 43 25 -144 27 -70 1 -135 0 -143 -3z"/>
<path d="M10133 5752 c-37 -4 -42 -16 -13 -32 29 -15 25 -42 -19 -134 -22 -44
-71 -148 -111 -231 -194 -406 -213 -443 -236 -456 -23 -12 -32 -28 -16 -30 4
-1 69 -2 145 -3 109 -2 137 1 137 11 0 8 -6 16 -14 19 -27 10 -25 35 9 112
l34 77 203 3 203 2 30 -62 c16 -35 32 -72 36 -83 7 -25 -7 -55 -26 -55 -18 0
-20 -20 -2 -21 6 -1 81 -2 165 -3 156 -2 181 5 127 34 -19 10 -72 107 -215
395 -105 210 -190 389 -190 396 0 8 9 20 21 27 41 26 15 35 -111 36 -69 0
-140 0 -157 -2z m187 -372 c32 -72 64 -138 71 -146 6 -8 8 -15 3 -15 -43 -6
-266 -3 -270 3 -3 4 7 33 21 65 73 160 109 233 113 229 2 -3 30 -64 62 -136z"/>
<path d="M12104 5752 c-44 -7 -47 -12 -20 -33 l26 -20 -1 -391 0 -391 -25 -20
c-15 -11 -21 -22 -16 -26 20 -12 275 -7 279 6 2 6 -5 14 -16 18 -12 3 -22 14
-22 23 -1 9 -2 189 -3 400 l-1 383 23 20 c13 11 21 23 19 26 -6 6 -212 10
-243 5z"/>
<path d="M13913 5746 c-3 -5 4 -16 16 -25 22 -17 22 -17 23 -406 0 -385 0
-390 -21 -413 -12 -14 -19 -27 -16 -30 3 -4 62 -7 130 -7 93 -1 126 2 129 12
3 7 -1 13 -10 13 -8 0 -19 12 -24 26 -11 27 -14 544 -4 544 3 0 27 -22 53 -49
25 -27 138 -145 251 -261 113 -117 208 -219 211 -228 3 -10 -3 -23 -15 -34
-25 -21 -31 -20 129 -22 133 -2 176 7 133 28 l-23 12 -3 399 -2 400 22 17 c13
9 20 20 16 24 -4 3 -64 7 -133 8 -131 1 -144 -4 -105 -39 19 -17 20 -31 20
-284 l-1 -266 -117 121 c-322 332 -382 397 -382 414 0 11 8 23 17 29 10 5 15
12 11 16 -10 10 -299 11 -305 1z"/>
<path d="M15560 5744 c0 -6 7 -18 16 -25 24 -20 13 -60 -59 -210 -35 -74 -85
-177 -110 -229 -164 -346 -177 -370 -202 -382 -27 -12 -33 -27 -12 -29 58 -6
280 -3 284 4 2 4 -7 17 -20 27 -30 24 -30 26 13 117 l35 73 200 0 201 0 33
-67 c41 -83 46 -110 20 -126 -42 -26 -18 -32 145 -32 171 -1 185 4 130 40 -14
9 -39 46 -57 83 -18 37 -35 69 -39 70 -5 2 -8 8 -8 12 0 5 -67 145 -150 311
-82 167 -150 307 -150 311 0 5 9 16 20 25 39 34 24 38 -135 38 -108 0 -155 -3
-155 -11z m210 -354 c58 -128 68 -153 67 -165 -2 -12 -256 -15 -263 -3 -3 4 0
15 5 25 19 33 108 228 115 251 7 22 9 23 20 5 7 -10 32 -61 56 -113z"/>
<path d="M16541 5743 c-9 -7 -11 -12 -4 -13 39 -1 40 -14 39 -424 -1 -383 -2
-396 -21 -410 -11 -8 -16 -18 -12 -23 5 -4 178 -9 385 -9 455 -2 419 0 427
-23 3 -11 12 -18 19 -15 18 7 17 225 -1 231 -6 2 -14 -5 -18 -16 -8 -27 -38
-30 -327 -30 -224 0 -247 1 -252 17 -2 9 -4 165 -3 345 l2 329 24 19 c13 11
21 22 18 25 -12 12 -260 9 -276 -3z"/>
<path d="M431 5490 c-13 -8 -9 -290 4 -291 5 0 529 -1 1163 -2 762 -1 1152 1
1153 8 4 45 3 278 -1 284 -6 8 -2306 10 -2319 1z"/>
<path d="M17728 5485 c-3 -8 -1 -269 1 -285 1 -8 2306 -4 2318 3 7 4 10 59 9
149 l-1 143 -1162 0 c-792 1 -1163 -3 -1165 -10z"/>
<path d="M8 3673 c7 -3 16 -2 19 1 4 3 -2 6 -13 5 -11 0 -14 -3 -6 -6z"/>
</g>
</svg>
